<?xml version="1.0" encoding="utf-8"?>
<!-- Generator: Adobe Illustrator 22.0.1, SVG Export Plug-In . SVG Version: 6.00 Build 0)  -->
<svg version="1.1"
	 id="svg3" inkscape:version="0.92.1 r15371" sodipodi:docname="fire-tv-path.svg" xmlns:cc="http://creativecommons.org/ns#" xmlns:dc="http://purl.org/dc/elements/1.1/" xmlns:inkscape="http://www.inkscape.org/namespaces/inkscape" xmlns:rdf="http://www.w3.org/1999/02/22-rdf-syntax-ns#" xmlns:sodipodi="http://sodipodi.sourceforge.net/DTD/sodipodi-0.dtd" xmlns:svg="http://www.w3.org/2000/svg"
	 xmlns="http://www.w3.org/2000/svg" xmlns:xlink="http://www.w3.org/1999/xlink" x="0px" y="0px" viewBox="0 0 864.4 183.3"
	 style="enable-background:new 0 0 864.4 183.3;" xml:space="preserve">
<style type="text/css">
	.st0{stroke:#000000;stroke-width:1.0667;}
	.st1{fill-rule:evenodd;clip-rule:evenodd;}
</style>
<sodipodi:namedview  bordercolor="#666666" borderopacity="1" gridtolerance="10" guidetolerance="10" id="namedview5" inkscape:current-layer="svg3" inkscape:cx="816.42818" inkscape:cy="578.13827" inkscape:pageopacity="0" inkscape:pageshadow="2" inkscape:window-height="1023" inkscape:window-maximized="0" inkscape:window-width="1585" inkscape:window-x="0" inkscape:window-y="0" inkscape:zoom="0.54063115" objecttolerance="10" pagecolor="#ffffff" showgrid="false">
	</sodipodi:namedview>
<g id="g4546">
	<g id="g4553">
	</g>
	<g id="g4561">
		<path id="path4537" d="M548.6,0.1c-1.4,0-2.8,0.1-4.1,0.3c-2.2,0.2-5.2,1.2-7.2,2.3c-2.1,1.1-3.4,1.9-5.1,3.5
			c-3.9,3.7-6,8.7-6.9,13.9l-0.3,1.5l-0.2,10.6l-0.2,2.8l0.2,2.8v1.5h-3.2l-7.8,0.2v10.6c0,1.7,0.5,1.7,2.1,1.7h8.9v52v11.8
			c0,0.8-0.2,3.3,0.4,3.8c0.4,0.2,1,0.2,1.5,0.2h11.4c1.6,0,1.9-0.3,1.9-1.9V52h14.6c2.1,0,2-0.4,2.9-3.2l3-9.1h-2.7l-2.3-0.2h-10
			H540V26.9l0.2-2.3c0.2-2.8,0.6-5.5,2.4-7.8c2.6-3.3,5.7-3.4,9.6-3.4c0.8,0,2,0.1,2.8,0.3l3.2,0.8c0.4,0.1,1.3,0.5,1.7,0.3
			c0.7-0.2,0.9-1.9,1.1-2.6l1.8-6.8c0.2-0.7,0.7-2,0.2-2.6c-0.4-0.4-1.5-0.8-2-1c-2-0.7-4.1-1.1-6.4-1.5
			C552.4,0.2,550.5,0.1,548.6,0.1z M581,4.2c-0.4,0-0.8,0-1.2,0.1c-2.8,0.5-5.2,1.6-6.8,4.1c-1.2,1.9-1.5,3.7-1.5,5.9
			c0.1,4.9,3.3,8.6,8.2,9.3c0.9,0.1,1.3,0.2,2.3,0.1c2-0.2,3-0.4,4.7-1.5c1.3-0.8,2.8-2.4,3.4-3.7c1.8-3.5,1.2-8.5-1.6-11.3
			C586.5,5,583.8,4.2,581,4.2z M639.3,37.5c-6.5,0.1-11.7,2.1-16.8,6.2l-5.9,5.2c0-1.5-0.7-5.2-1-6.8c-0.1-0.5-0.3-2-0.6-2.3
			c-0.4-0.4-1.3-0.3-1.8-0.3h-7.6c-0.7,0-2.5-0.1-3,0.2c-0.5,0.4-0.5,1.3-0.5,1.9v7.8l0.1,1.7l-0.1,2.1v5.3l0.1,1.5l-0.1,1.3v2.8
			l0.2,2.8v5.9v2.8v3.4v24.3v12.3c0,0.7-0.2,3.4,0.3,3.8c0.3,0.2,1,0.2,1.4,0.2h13.3c0.3-2.4,0.2-4.9,0.2-7.4v-11.9V63.1
			c0-0.5,0-1.1,0.2-1.5c0.3-0.6,3.1-3,3.8-3.6c3.4-2.8,6.7-5.2,11-6.2l1.9-0.4h1.9c1.9,0.1,3.4,0.5,5.2,1.2c0.5,0.2,1.6,0.8,2.1,0.3
			c0.3-0.3,1.1-2.5,1.3-3.1l1.4-3.4l1.2-3.2c0.3-0.6,1.2-2.6,0.9-3.2c-0.3-0.6-1.4-1.1-2.1-1.3c-1.8-0.7-4.6-1.2-6.4-1.2
			C639.7,37.5,639.5,37.5,639.3,37.5z M676.3,37.6l-4.2,0.6c-5.6,1.2-10.6,3.8-14.8,7.7c-8.4,7.8-12.1,20.8-12.1,32
			c0,14.1,4,29,16.5,37.2c3.2,2.1,5.2,3,8.9,4.2c1.8,0.6,3.7,1.1,5.5,1.4l1.5,0.1c1,0.1,1.3,0.3,2.5,0.3h2.1l1.5,0.2l3.2-0.2
			c5.4-0.1,14.4-2.2,19.1-4.7l3-1.6c0.4-0.2,0.9-0.5,1.1-0.9c0.2-0.5-0.5-1.9-0.8-2.4l-2.6-5.7c-0.2-0.5-0.7-1.8-1.2-2.1
			c-0.6-0.3-2.2,0.7-2.8,1c-2.3,1.1-4.7,2.1-7.2,2.7c-7.1,1.9-15.1,2.1-21.8-1.3c-6.1-3.1-10.3-8.9-12-15.5
			c-0.5-1.8-0.8-3.6-0.9-5.5c0-0.5-0.3-1.4,0.1-1.8c0.4-0.4,1.1-0.3,1.6-0.3h38.1h9.9c1.6,0,1.7-0.1,1.7-1.7v-4.2l-0.2-3.6
			c0-2.7-0.6-5.7-1.2-8.3c-1.9-9.1-6.3-17.8-14.3-23c-4.3-2.8-10.7-4.7-15.9-4.7h-3.2H676.3z M586.7,39.4c-0.5,0-1,0-1.2,0h-11
			c-0.3,0.1-0.5,0.1-0.7,0.4c-0.3,0.4-0.2,1.3-0.2,1.8v3l0.2,2.5l-0.2,2.8v6.6l0.2,4v4.6l-0.2,3.6l0.2,2.8v8l-0.1,2.1l0.1,1.9v19.1
			v12.9c0,0.7-0.2,3.4,0.3,3.8c0.3,0.2,1,0.2,1.4,0.2H587c0.5,0,1.2,0.1,1.6-0.3c0.4-0.4,0.3-1.1,0.3-1.6V57.6V41.3
			c0-0.4,0-1.1-0.2-1.4C588.5,39.5,587.6,39.5,586.7,39.4z M676.3,49.9h4c6.2,0,11.2,4.4,13.7,9.8c1.4,3.1,1.9,5.1,2.3,8.3
			c0.1,0.7,0.6,2.9,0,3.4c-0.3,0.3-1.2,0.2-1.6,0.2H664h-2.1c-1.6,0-1.1-1.1-0.9-2.5c0.2-2.7,0.6-4.4,1.5-7
			C664.8,55.7,669.5,51.2,676.3,49.9z"/>
	</g>
	<path id="path4527" class="st0" d="M727.5,39.6c-1,0-2.2,0-2.6,0.3c-0.4,0.4-0.3,1.1-0.3,1.6v10.2H748v67.7h14.6V51.8H784l3.4-11.4
		c0.9,0.6,1.9,3.8,2.4,4.9l5.1,12.5L814,105l4.4,10.8c0.3,0.8,1,3,1.7,3.4c0.4,0.2,1,0.2,1.5,0.2h8.7c0.4,0,0.9,0,1.2-0.3
		c0.5-0.4,1.5-3.3,1.8-4.1l5.9-14.6l16.3-40.2l5.3-13.1c0.6-1.4,2.2-6.6,2.9-7.6h-15.7l-3.6,9.7l-8.5,22l-7,18.4l-2.3,6.4l-1,2.7
		c-5.3-15.3-11.2-30.4-17.1-45.5l-4-10.2c-0.3-0.7-0.9-2.9-1.5-3.2c-0.4-0.2-1-0.2-1.5-0.2h-59H729
		C728.7,39.6,728.2,39.6,727.5,39.6z"/>
</g>
<g>
	<g>
		<path class="st1" d="M300.9,151c-28.2,20.8-69,31.9-104.2,31.9c-49.3,0-93.7-18.2-127.3-48.6c-2.6-2.4-0.3-5.6,2.9-3.8
			c36.2,21.1,81.1,33.8,127.4,33.8c31.2,0,65.6-6.5,97.2-19.9C301.6,142.4,305.5,147.5,300.9,151z"/>
		<path class="st1" d="M312.6,137.6c-3.6-4.6-23.8-2.2-32.9-1.1c-2.8,0.3-3.2-2.1-0.7-3.8c16.1-11.3,42.6-8.1,45.6-4.3
			c3.1,3.8-0.8,30.3-15.9,43c-2.3,1.9-4.5,0.9-3.5-1.7C308.6,161.2,316.2,142.2,312.6,137.6z"/>
	</g>
	<g>
		<path class="st1" d="M280.3,52.6v-11c0-1.7,1.3-2.8,2.8-2.8l49.3,0c1.6,0,2.8,1.1,2.8,2.8v9.4c0,1.6-1.3,3.6-3.7,6.9L306,94.5
			c9.5-0.2,19.5,1.2,28.1,6c1.9,1.1,2.5,2.7,2.6,4.3v11.7c0,1.6-1.8,3.5-3.6,2.5c-15.2-8-35.3-8.8-52.1,0.1
			c-1.7,0.9-3.5-0.9-3.5-2.6v-11.2c0-1.8,0-4.8,1.8-7.6L309,55.4l-25.8,0C281.6,55.4,280.4,54.3,280.3,52.6z"/>
		<path class="st1" d="M100.4,121.4h-15c-1.4-0.1-2.6-1.2-2.7-2.5l0-77c0-1.5,1.3-2.8,2.9-2.8l14,0c1.5,0.1,2.6,1.2,2.7,2.6v10.1
			h0.3c3.6-9.7,10.5-14.3,19.8-14.3c9.4,0,15.3,4.5,19.5,14.3c3.6-9.7,11.9-14.3,20.7-14.3c6.3,0,13.2,2.6,17.4,8.4
			c4.8,6.5,3.8,15.9,3.8,24.2l0,48.6c0,1.5-1.3,2.8-2.9,2.8h-15c-1.5-0.1-2.7-1.3-2.7-2.8l0-40.8c0-3.2,0.3-11.3-0.4-14.4
			c-1.1-5.2-4.5-6.7-8.8-6.7c-3.6,0-7.4,2.4-9,6.3c-1.5,3.9-1.4,10.4-1.4,14.8v40.8c0,1.5-1.3,2.8-2.9,2.8h-15
			c-1.5-0.1-2.7-1.3-2.7-2.8l0-40.8c0-8.6,1.4-21.2-9.2-21.2c-10.8,0-10.4,12.3-10.4,21.2l0,40.8C103.3,120.2,102,121.4,100.4,121.4
			z"/>
		<path class="st1" d="M377.8,37.4c22.3,0,34.3,19.1,34.3,43.5c0,23.5-13.3,42.2-34.3,42.2c-21.9,0-33.8-19.1-33.8-43
			C344,56.1,356.1,37.4,377.8,37.4z M377.9,53.1c-11.1,0-11.8,15.1-11.8,24.5c0,9.4-0.1,29.5,11.6,29.5c11.6,0,12.2-16.2,12.2-26.1
			c0-6.5-0.3-14.3-2.2-20.4C386.1,55.3,382.7,53.1,377.9,53.1z"/>
		<path class="st1" d="M441,121.4h-15c-1.5-0.1-2.7-1.3-2.7-2.8l0-77.1c0.1-1.4,1.4-2.5,2.9-2.5l13.9,0c1.3,0.1,2.4,1,2.7,2.2V53
			h0.3c4.2-10.5,10.1-15.6,20.5-15.6c6.7,0,13.3,2.4,17.5,9.1c3.9,6.2,3.9,16.5,3.9,24V119c-0.2,1.4-1.4,2.4-2.9,2.4h-15
			c-1.4-0.1-2.5-1.1-2.7-2.4V77.1c0-8.4,1-20.8-9.4-20.8c-3.6,0-7,2.4-8.7,6.2c-2.1,4.7-2.4,9.4-2.4,14.6v41.5
			C443.9,120.2,442.6,121.4,441,121.4z"/>
		<path class="st1" d="M241,84.6c0,5.9,0.1,10.7-2.8,15.9c-2.4,4.2-6.2,6.8-10.4,6.8c-5.8,0-9.1-4.4-9.1-10.9
			c0-12.8,11.5-15.1,22.3-15.1V84.6z M256.1,121.2c-1,0.9-2.4,1-3.5,0.3c-5-4.1-5.9-6.1-8.6-10c-8.2,8.4-14.1,10.9-24.7,10.9
			c-12.6,0-22.5-7.8-22.5-23.4c0-12.2,6.6-20.5,16-24.5c8.1-3.6,19.5-4.2,28.2-5.2v-1.9c0-3.6,0.3-7.8-1.8-10.9
			c-1.8-2.8-5.3-3.9-8.4-3.9c-5.7,0-10.8,2.9-12.1,9c-0.3,1.4-1.2,2.7-2.6,2.8l-14.6-1.6c-1.2-0.3-2.6-1.3-2.2-3.1
			c3.3-17.6,19.3-23,33.6-23c7.3,0,16.9,1.9,22.6,7.5c7.3,6.8,6.6,15.9,6.6,25.8v23.4c0,7,2.9,10.1,5.7,13.9c1,1.4,1.2,3,0,4
			C264.6,113.8,259.2,118.6,256.1,121.2L256.1,121.2z"/>
		<path class="st1" d="M44.2,84.6c0,5.9,0.1,10.7-2.8,15.9c-2.4,4.2-6.2,6.8-10.4,6.8c-5.8,0-9.1-4.4-9.1-10.9
			c0-12.8,11.5-15.1,22.3-15.1V84.6z M59.4,121.2c-1,0.9-2.4,1-3.5,0.3c-5-4.1-5.9-6.1-8.6-10c-8.2,8.4-14.1,10.9-24.7,10.9
			C9.8,122.5,0,114.7,0,99.1c0-12.2,6.6-20.5,16-24.5c8.1-3.6,19.5-4.2,28.2-5.2v-1.9c0-3.6,0.3-7.8-1.8-10.9
			c-1.8-2.8-5.3-3.9-8.4-3.9c-5.7,0-10.8,2.9-12.1,9c-0.3,1.4-1.2,2.7-2.6,2.8L4.8,62.8c-1.2-0.3-2.6-1.3-2.2-3.1
			c3.3-17.6,19.3-23,33.6-23c7.3,0,16.9,1.9,22.6,7.5C66,51,65.3,60.1,65.3,70v23.4c0,7,2.9,10.1,5.7,13.9c1,1.4,1.2,3,0,4
			C67.8,113.8,62.4,118.6,59.4,121.2L59.4,121.2z"/>
	</g>
</g>
</svg>
