<?xml version="1.0" encoding="utf-8"?>
<!-- Generator: Adobe Illustrator 22.0.1, SVG Export Plug-In . SVG Version: 6.00 Build 0)  -->
<svg version="1.1" id="Layer_1" xmlns="http://www.w3.org/2000/svg" xmlns:xlink="http://www.w3.org/1999/xlink" x="0px" y="0px"
	 viewBox="0 0 102.6 123.4" style="enable-background:new 0 0 102.6 123.4;" xml:space="preserve">
<style type="text/css">
	.st0{fill:none;}
	.st1{fill:#FFFFFF;}
</style>
<line class="st0" x1="-175.5" y1="31.1" x2="-109" y2="31.1"/>
<line class="st0" x1="-165" y1="-3.3" x2="-158.7" y2="5.8"/>
<g>
	<g>
		<path d="M84.7,94.5c0,2.2-1.8,4-4,4H21.9c-2.2,0-4-1.8-4-4V42.1c0-2.2,1.8-4,4-4h58.8c2.2,0,4,1.8,4,4V94.5z"/>
		<rect x="17.8" y="38.1" width="66.9" height="27.6"/>
	</g>
	<g>
		<path d="M102.6,74.9c0,3.9-3.2,7.1-7.1,7.1l0,0c-3.9,0-7.1-3.2-7.1-7.1v-32c0-3.9,3.2-7.1,7.1-7.1l0,0c3.9,0,7.1,3.2,7.1,7.1V74.9
			z"/>
		<path d="M14.2,74.9c0,3.9-3.2,7.1-7.1,7.1l0,0C3.2,82,0,78.8,0,74.9v-32c0-3.9,3.2-7.1,7.1-7.1l0,0c3.9,0,7.1,3.2,7.1,7.1V74.9z"
			/>
	</g>
	<path d="M18.1,34.1c0,0,0.7-28.3,33.2-28.2C83.4,6,84.5,34.1,84.5,34.1H18.1z"/>
	<g>
		<circle class="st1" cx="36.7" cy="19.7" r="4"/>
		<circle class="st1" cx="65.8" cy="19.7" r="4"/>
	</g>
	<g>
		<path d="M35.6,9.7c0.1,0.2,0.5,0.1,0.8-0.1l0,0c0.3-0.2,0.5-0.6,0.4-0.7l-6.2-8.8c-0.1-0.2-0.5-0.1-0.8,0.1l0,0
			c-0.3,0.2-0.5,0.6-0.4,0.7L35.6,9.7z"/>
		<path d="M66.9,9.7c-0.1,0.2-0.5,0.1-0.8-0.1l0,0c-0.3-0.2-0.5-0.6-0.4-0.7L72,0.1c0.1-0.2,0.5-0.1,0.8,0.1l0,0
			c0.3,0.2,0.5,0.6,0.4,0.7L66.9,9.7z"/>
	</g>
	<g>
		<path d="M72.1,116.3c0,3.9-3.2,7.1-7.1,7.1l0,0c-3.9,0-7.1-3.2-7.1-7.1v-32c0-3.9,3.2-7.1,7.1-7.1l0,0c3.9,0,7.1,3.2,7.1,7.1
			V116.3z"/>
		<path d="M44.7,116.3c0,3.9-3.2,7.1-7.1,7.1l0,0c-3.9,0-7.1-3.2-7.1-7.1v-32c0-3.9,3.2-7.1,7.1-7.1l0,0c3.9,0,7.1,3.2,7.1,7.1
			V116.3z"/>
	</g>
</g>
</svg>
