<svg xmlns="http://www.w3.org/2000/svg" viewBox="0 0 494 97.87"><defs><style>.cls-1{fill:#f9b300;}.cls-2{fill:#fff;}</style></defs><title>ESPN+_logo</title><g id="Layer_2" data-name="Layer 2"><g id="Layer_1-2" data-name="Layer 1"><path class="cls-2" d="M273.47,0H129.33c-14.78,0-24.52,7.76-25.93,19.39-.51,4.27-1,8.06-1,8.06h192s.38-2.83.64-5.11C296.54,10.64,291.59,0,273.47,0"/><path class="cls-2" d="M293.15,37.94s-.42,3.86-1,8.09c-1.16,8.38-7.41,14.63-19,14.63H232.24l-4.62,37.18-32.56,0,7.38-59.93Z"/><polygon class="cls-2" points="12.13 0 8.74 27.48 95.83 27.48 99.25 0.03 12.13 0"/><polygon class="cls-2" points="7.44 37.92 0 97.85 87.09 97.85 90.32 71.84 35.78 71.84 37.18 60.63 91.72 60.63 94.53 37.92 7.44 37.92"/><path class="cls-2" d="M304.47,0h71c11.22,0,22.92,5.23,20.58,23.24-.41,3.2-.53,4.21-.53,4.21H301.08Z"/><polygon class="cls-2" points="292.33 97.84 324.92 97.83 332.35 37.94 299.77 37.92 292.33 97.84"/><polygon class="cls-2" points="354.2 97.84 386.78 97.83 394.22 37.94 361.63 37.92 354.2 97.84"/><path class="cls-2" d="M172.65,38l-71.54,0c-2.41,15.65,5.42,22.73,16.5,22.73l44.05,0-1.38,11.24H96.89l-3.22,26s69,0,71.81,0c2.3-.17,18.46-.6,24-13.82,1.79-4.28,3.39-19.65,3.84-22.86C195.84,42.42,182.86,38,172.65,38"/><polygon class="cls-1" points="446.69 12.16 443.64 36.61 419.39 36.61 416.45 60.84 440.76 60.84 437.64 85.7 463.5 85.7 466.62 60.84 491.06 60.84 494 36.61 469.5 36.61 472.55 12.16 446.69 12.16"/></g></g></svg>