<svg xmlns="http://www.w3.org/2000/svg" viewBox="0 0 494 97.87"><g data-name="Layer 2"><g data-name="Layer 1"><path d="M273.47 0H129.33c-14.78 0-24.52 7.76-25.93 19.39-.51 4.27-1 8.06-1 8.06h192s.38-2.83.64-5.11C296.54 10.64 291.59 0 273.47 0M293.15 37.94s-.42 3.86-1 8.09c-1.16 8.38-7.41 14.63-19 14.63h-40.91l-4.62 37.18h-32.56l7.38-59.93zM12.13 0L8.74 27.48h87.09L99.25.03 12.13 0zM7.44 37.92L0 97.85h87.09l3.23-26.01H35.78l1.4-11.21h54.54l2.81-22.71H7.44zM304.47 0h71c11.22 0 22.92 5.23 20.58 23.24-.41 3.2-.53 4.21-.53 4.21h-94.44zM292.33 97.84l32.59-.01 7.43-59.89-32.58-.02-7.44 59.92zM354.2 97.84l32.58-.01 7.44-59.89-32.59-.02-7.43 59.92zM172.65 38h-71.54c-2.41 15.65 5.42 22.73 16.5 22.73h44.05l-1.38 11.24H96.89l-3.22 26h71.81c2.3-.17 18.46-.6 24-13.82 1.79-4.28 3.39-19.65 3.84-22.86C195.84 42.42 182.86 38 172.65 38"/><path fill="#f9b300" d="M446.69 12.16l-3.05 24.45h-24.25l-2.94 24.23h24.31l-3.12 24.86h25.86l3.12-24.86h24.44L494 36.61h-24.5l3.05-24.45h-25.86z"/></g></g></svg>