<svg id="Layer_1" data-name="Layer 1" xmlns="http://www.w3.org/2000/svg" viewBox="0 0 494 97.87"><defs><style>.cls-1{fill:#f9b300;}</style></defs><title>ESPN+_logo_1</title><path d="M273.47,0H129.33c-14.78,0-24.52,7.76-25.93,19.39-.51,4.27-1,8.06-1,8.06h192s.38-2.83.64-5.11C296.54,10.64,291.59,0,273.47,0m19.68,37.94s-.42,3.86-1,8.09c-1.16,8.38-7.41,14.63-19,14.63H232.24l-4.62,37.18H195.06l7.38-59.93ZM12.13,0,8.74,27.48H95.83L99.25,0ZM7.44,37.92,0,97.85H87.09l3.23-26H35.78l1.4-11.21H91.72l2.81-22.71ZM304.47,0h71c11.22,0,22.92,5.23,20.58,23.24-.41,3.2-.53,4.21-.53,4.21H301.08ZM292.33,97.84h32.59l7.43-59.89-32.58,0-7.44,59.92Zm61.87,0h32.58l7.44-59.89-32.59,0L354.2,97.84ZM172.65,38H101.11c-2.41,15.65,5.42,22.73,16.5,22.73h44.05L160.28,72H96.89L93.67,98h71.81c2.3-.17,18.46-.6,24-13.82,1.79-4.28,3.39-19.65,3.84-22.86C195.84,42.42,182.86,38,172.65,38"/><path class="cls-1" d="M446.69,12.16l-3.05,24.45H419.39l-2.94,24.23h24.31L437.64,85.7H463.5l3.12-24.86h24.44L494,36.61H469.5l3.05-24.45Z"/></svg>